<?xml version="1.0" encoding="UTF-8"?>
<svg width="600" height="953" version="1.1" viewBox="0 0 158.75 252.15" xml:space="preserve" xmlns="http://www.w3.org/2000/svg"><path d="m79.275 0.035847c-0.67055 3.2e-6 -1.3405 0.22558-1.3532 0.67661-1.8101 64.359-12.268 102.79-12.268 102.79l-10.965 1.0703s-6.708-13.688-10.295-76.485c-0.06669-1.1681-3.4397-1.1679-3.5101 0-3.79 62.869-12.536 82.835-12.536 82.835l-10.195 2.7744s-5.9551-7.5493-10.263-52.081c-0.10299-1.0646-3.1376-1.0672-3.2087 0-2.9521 44.283-4.6802 69.789-4.6802 69.789s69.091 21.733 77.921 119.38c0.16005 1.77 2.569 1.7641 2.7072 0 7.638-97.497 78.121-119.38 78.121-119.38s-2.2875-26.045-5.3154-69.789c-0.0678-0.9781-2.853-0.97645-2.9414 0-3.8922 42.996-11.032 52.081-11.032 52.081l-9.025-2.7744s-8.8081-15.887-13.238-82.835c-0.0699-1.0562-3.1091-1.0557-3.1755 7.39e-4 -4.1728 66.374-10.664 76.484-10.664 76.484l-10.329-1.0703s-10.646-38.445-12.402-102.79c-0.0127-0.45104-0.68341-0.67662-1.354-0.67661zm0.20609 87.309 3.8159 28.365-12.67 15.698 52.285-9.0796-41.341 36.945c6.3186 2.6178 12.209 5.4139 18.555 7.9657l-17.586 21.652-3.0595 25.812-5.1662-28.459 10.589-14.277-29.783-8.3203 34.699-26.095-46.612 9.833 32.903-35.645z" stroke-width=".37819"/></svg>
