<?xml version="1.0" encoding="UTF-8"?>
<svg version="1.1" viewBox="0 0 555.42 457.45" xmlns="http://www.w3.org/2000/svg">
<path d="m465.91 211.91-58.735 118.92h116.14zm-376.36-111.22-58.722 118.92h116.08zm292.42 225.23 58.774-111.88c-50.376-9.8108-74.17-32.193-95.127-49.002-21.008-16.757-43.429-9.7719-43.429-9.7719l11.236 139.88h51.788l-19.596 47.589h-37.817v64.347h51.788l20.969 50.376h-222.45l23.782-50.376h47.589v-64.347h-33.605l-20.969-50.376h53.162l8.3981-160.89s-27.994-8.3463-51.788-6.9855c-23.743 1.3738-60.135-4.1991-60.135-4.1991l51.737 97.913s3.1363 5.6117 3.1363 16.809c0 0-26.931 57.348-89.865 57.348-62.921 0-89.554-53.149-89.554-61.56 0-4.549 4.212-12.597 4.212-12.597l64.386-123.12s-9.8237-8.0093-9.8237-20.257c0-0.10368-1.3608-31.493 30.78-31.493 32.154 0 30.78 30.78 30.78 30.78s29.368 12.61 54.575 5.5728c25.168-6.9855 68.546-15.332 68.546-15.332v-26.581l26.581-37.766 27.994 39.126v34.979c18.183 0 62.934 26.581 88.141 57.361 25.168 30.78 54.575 41.978 54.575 41.978s11.185-18.183 27.994-18.183c16.757 0 29.316 13.971 29.316 29.419 0 15.332-11.185 23.743-11.185 23.743l65.759 124.53s2.7864 4.86 2.7864 12.558c0 0-23.743 58.774-88.09 58.774s-90.928-51.788-90.928-61.56c0-6.6356 5.5728-16.809 5.5728-16.809"/>
</svg>
