<?xml version="1.0" encoding="UTF-8"?>
<svg version="1.1" viewBox="0 0 456.76 462.1" xmlns="http://www.w3.org/2000/svg" xmlns:xlink="http://www.w3.org/1999/xlink">
<path d="m255.74 4.3155a228.38 228.38 0 0 0-78.35 4.341l-71.377-8.6123c-3.3058-0.39887-6.2895 1.9406-6.6883 5.2463l-4.957 41.083a228.38 228.38 0 0 0-92.722 157.32 228.38 228.38 0 0 0 199.38 254.09 228.38 228.38 0 0 0 78.35-4.343l71.377 8.6123c3.3057 0.39887 6.2895-1.9406 6.6883-5.2464l4.9571-41.083a228.38 228.38 0 0 0 92.722-157.32 228.38 228.38 0 0 0-199.38-254.09z" fill="#fff"/>
<path d="m308.27 33.232-2.541 21.068c78.006 34.125 124.43 115.34 114.27 199.87-2.3851 18.658-8.3192 40.104-17.053 58.785-5.3656 11.477-16.85 8.7988-12.092-0.90039 8.9682-18.281 14.574-37.375 17.727-59.262 13.457-111.53-106.34-169.54-112.34-119.82l-3.9082 32.385 92.871 11.205c3.3057 0.39887 5.647 3.3837 5.2481 6.6894l-25.545 211.72c41.891-34.797 68.909-84.28 75.529-138.33 11.439-95.766-42.722-187.32-132.16-223.4zm-216.41 33.9c-41.891 34.797-68.909 84.28-75.529 138.33-11.439 95.766 42.722 187.32 132.16 223.4l2.541-21.068c-78.006-34.125-124.43-115.34-114.27-199.87 2.3851-18.658 8.3192-40.104 17.053-58.785 5.3656-11.477 16.85-8.7988 12.092 0.90039-8.9682 18.281-14.574 37.375-17.727 59.262-13.457 111.53 106.34 169.54 112.34 119.82l3.9082-32.385-92.871-11.205c-3.3058-0.39888-5.6469-3.3837-5.248-6.6895z"/>
<path d="m193.26 78.476c-29.477-0.42667-56.493 30.684-61.48 72.021-4.7421 39.672 12.5 75.631 40.189 83.818l9.207-76.314c0.39888-3.3058 3.3817-5.6469 6.6875-5.248l57.031 6.8828c3.321-41.743-17.413-77.211-47.271-80.865-1.4593-0.17609-2.9136-0.27394-4.3633-0.29493zm91.533 149.31-9.207 76.314c-0.39888 3.3058-3.3817 5.6469-6.6875 5.248l-57.031-6.8828c-3.321 41.743 17.413 77.211 47.271 80.865 31.131 3.7563 60.611-28.357 65.844-71.727 4.7424-39.672-12.5-75.631-40.189-83.818z"/>
<path d="m113.41 16.612-30.945 256.47 179.89 21.707 1.9141-15.867 7.0508-58.443c0.52197-4.326 3.8861-7.5814 8-8.1504 0.14925 0.013 0.29815 0.0287 0.44727 0.043 1.8098 0.25583 3.6068 0.60349 5.3867 1.043l4e-3 -0.0312c0.10518 0.0307 0.20941 0.0623 0.31445 0.0937 0.34208 0.0628 0.6844 0.12783 1.0254 0.19727l-0.0117 0.10156c35.411 8.9312 58.071 51.964 52.396 99.5-6.1594 51.046-42.612 88.632-81.42 83.949-37.475-4.5493-63.67-46.987-59.531-96.445l-19.344-2.334-15.123 125.33 179.89 21.705 30.945-256.47-179.89-21.707-1.9141 15.867-7.0508 58.443c-0.52197 4.326-3.8861 7.5814-8 8.1504-0.14925-0.013-0.29815-0.0287-0.44727-0.043-1.8098-0.25584-3.6068-0.60349-5.3867-1.043l-4e-3 0.0312c-0.10519-0.0307-0.20941-0.0623-0.31445-0.0937-0.34207-0.0628-0.6844-0.12781-1.0254-0.19726l0.0137-0.10156c-35.411-8.9312-58.073-51.964-52.398-99.5 6.1594-51.046 42.612-88.632 81.42-83.949 37.475 4.5493 63.67 46.987 59.531 96.445l19.344 2.334 15.123-125.33z"/>
</svg>
