<?xml version="1.0" encoding="UTF-8"?>
<!DOCTYPE svg  PUBLIC '-//W3C//DTD SVG 1.1//EN'  'http://www.w3.org/Graphics/SVG/1.1/DTD/svg11.dtd'>
<svg clip-rule="evenodd" fill-rule="evenodd" stroke-linejoin="round" stroke-miterlimit="2" version="1.1" viewBox="0 0 1e3 1e3" xml:space="preserve" xmlns="http://www.w3.org/2000/svg">
    <g transform="translate(-4832)">
        <g transform="translate(-.33333)">
            <rect x="4832.3" width="1e3" height="1e3" fill="none"/>
            <g transform="translate(1208.3)">
                <path d="m4009.8 593.6s-136.21 61.099-184-43c-44.84-97.684 59.18-154.64 57-159 0 0 132-99 212 25l-89 54s-32 14-2 42l139 252s10 37 54 8l371-210s33-12 3-46l-136-249s-18-38-57-6l-144 79s-39.5 20.999-6 51.499c0 0 12.09 11.808 37.49-1.702 0 0 177.84-47.279 164.81 109.61-14.26 171.7-199.62 148.08-221.24 132.86 0 0-42.49-17.375-52.56-46.062l87.15-57.23s17.8-15.309-2.52-48.728l-129.49-238.08s-19.56-52.374-74.46-5.049l-351.47 194.35s-42.28 11.358-8.84 52.374l139.46 254.3s15.14 32.813 56.16 0l140.08-82.662s27.76-13.251 20.82-26.502l-23.39-35.972z"/>
            </g>
            <g transform="translate(1208.3)">
                <path d="m4001.4 575.18s-152.61 54.64-163.24-75.182c0 0-5.9-81.805 102.1-114.71 81.8-24.922 110.77 20.86 110.77 20.86l-99.26 77.684 49.63 91.351z"/>
            </g>
            <g transform="matrix(-1 0 0 -1 9458.5 998.86)">
                <path d="m4001.4 575.18s-152.61 54.64-163.24-75.182c0 0-5.9-81.805 102.1-114.71 81.8-24.922 110.77 20.86 110.77 20.86l-99.26 77.684 49.63 91.351z"/>
            </g>
        </g>
    </g>
</svg>
