<?xml version="1.0" encoding="UTF-8"?>
<svg width="91.79pt" height="81.03pt" version="1.1" viewBox="0 0 91.79 81.03" xmlns="http://www.w3.org/2000/svg">
<defs>
<clipPath id="d">
<path d="m0 0h83v81.031h-83z"/>
</clipPath>
<clipPath id="c">
<path d="m77 13h14.789v16h-14.789z"/>
</clipPath>
<clipPath id="b">
<path d="m82 12h9.7891v4h-9.7891z"/>
</clipPath>
<clipPath id="a">
<path d="m78 9h13.789v11h-13.789z"/>
</clipPath>
</defs>
<path d="m46.023 9.625s-7.25-9.75-22.664-9.5c-15.418 0.25391-24.086 12.934-23.168 22 0 10.48 4.082 19.355 4.332 24.668 0.25391 5.3164-0.25 7.4453-1 9.5-0.74609 2.0547-0.83203 6.5-0.83203 6.5s11.02 11.73 14.668 13c4.3477 2.2539 8.1641 5.7852 14.332 5 6.168-0.78125 7.9141-2.0508 10.332-4.168 2.418-2.1133 0.33594-4.6641 0.33594-4.6641s-1.3047-3.2188 2.3047-5.3359c3.6133-2.1133 6.0273-13.5 6.0273-13.5s3.6836-7.3789 3.168-11.16-1-7.3398-1-7.3398 0.74609-3.3906 1.6641-5.832c0.91797-2.4414-0.33203-5.418-0.83203-7.668 0-1.1055-2.918-3.332 0.83203-3.332h15.336l2.832-0.33203 6.668-3.668s-6.2695-3.2148-6.8359-3.332c-0.5625-0.12109-3.1641-0.66797-3.1641-0.66797" fill="#221f1f"/>
<g clip-path="url(#d)">
<path transform="matrix(.1 0 0 -.1 0 81.03)" d="m460.23 714.05s-72.5 97.5-226.64 95c-154.18-2.5391-240.86-129.34-231.68-220 0-104.8 40.82-193.55 43.32-246.68 2.5391-53.164-2.5-74.453-10-95-7.4609-20.547-8.3203-65-8.3203-65s110.2-117.3 146.68-130c43.477-22.539 81.641-57.852 143.32-50 61.68 7.8125 79.141 20.508 103.32 41.68 24.18 21.133 3.3594 46.641 3.3594 46.641s-13.047 32.188 23.047 53.359c36.133 21.133 60.273 135 60.273 135s36.836 73.789 31.68 111.6-10 73.398-10 73.398 7.4609 33.906 16.641 58.32c9.1797 24.414-3.3203 54.18-8.3203 76.68 0 11.055-29.18 33.32 8.3203 33.32h153.36l28.32 3.3203 66.68 36.68s-62.695 32.148-68.359 33.32c-5.625 1.2109-31.641 6.6797-31.641 6.6797z" fill="none" stroke="#020202" stroke-miterlimit="10" stroke-width="2.5"/>
</g>
<path d="m30.691 15.953c0.19531-0.19141 1.668-1.4141 1.668-1.4141s1.457-0.625-0.33594-1.5c-1.7891-0.875-4-2.543-4-2.543s-0.83203-1.332-1-2.5c-0.16406-1.168-0.53906-1.457-0.53906-1.457s-0.64453-0.74609-3.168 0.20703c-1.375 0.5-2.293 0.33203-2.293 0.33203s-0.28906-0.58203-0.375-2.375c-0.082032-1.7891-1.4141 0.66797-1.75 0.96094-0.33203 0.28906-0.91406 2.0391-1.625 1.332-0.70703-0.70703-1.875-1.043-1.832-1 0.042969 0.042969-1.0742 0.125-1.0742 2.2656s-2.0469 1.375-2.875 1.4688-2-0.20312-2.1875 0.10938-0.57812 0.125 0.625 2.625-1.6719 2.0781-2.4688 2.5781c-0.79297 0.5-2.3438 1.3281 1.75 2.0156 1.5469 0.17188 2.3906 0.23438 2.3438 1.7188s-0.10938 2.3438 1.5781 2.1094c0.0625-0.21875 0.59375 2.4062 0.78125 3.1094s0.76562 3.1094 1.7812 1.7812c1.0195-1.3281 1.9062-2.0625 2.25-1.7031 0 0 2.7031 2.5938 3.1094 2.625 0.41016 0.03125 1.2852-0.28125 2.125-1.8125 0.84375-1.5312 0.9375-1.4688 2.9688-1.3125 0 0 0.75 0.15625 1.25 0.21875s0.81641-0.375 0.84375-1.1875c0.03125-0.8125-1.0938-2.1875 1.3125-2.3438 2.4102-0.15625 3.9688-0.25 1.625-2.0312-2.3398-1.7812-0.67969-2.082-0.48828-2.2773" fill="#fff"/>
<path transform="matrix(.1 0 0 -.1 0 81.03)" d="m306.91 650.77c1.9531 1.9141 16.68 14.141 16.68 14.141s14.57 6.25-3.3594 15c-17.891 8.75-40 25.43-40 25.43s-8.3203 13.32-10 25c-1.6406 11.68-5.3906 14.57-5.3906 14.57s-6.4453 7.4609-31.68-2.0703c-13.75-5-22.93-3.3203-22.93-3.3203s-2.8906 5.8203-3.75 23.75c-0.82031 17.891-14.141-6.6797-17.5-9.6094-3.3203-2.8906-9.1406-20.391-16.25-13.32-7.0703 7.0703-18.75 10.43-18.32 10 0.42969-0.42969-10.742-1.25-10.742-22.656s-20.469-13.75-28.75-14.688-20 2.0312-21.875-1.0938-5.7812-1.25 6.25-26.25-16.719-20.781-24.688-25.781c-7.9297-5-23.438-13.281 17.5-20.156 15.469-1.7188 23.906-2.3438 23.438-17.188s-1.0938-23.438 15.781-21.094c0.625 2.1875 5.9375-24.062 7.8125-31.094s7.6562-31.094 17.812-17.812c10.195 13.281 19.062 20.625 22.5 17.031 0 0 27.031-25.938 31.094-26.25 4.1016-0.3125 12.852 2.8125 21.25 18.125 8.4375 15.312 9.375 14.688 29.688 13.125 0 0 7.5-1.5625 12.5-2.1875s8.1641 3.75 8.4375 11.875c0.3125 8.125-10.938 21.875 13.125 23.438 24.102 1.5625 39.688 2.5 16.25 20.312-23.398 17.812-6.7969 20.82-4.8828 22.773z" fill="none" stroke="#fff" stroke-miterlimit="10" stroke-width="2.5"/>
<path d="m35.039 27.043s1.8906-0.046875 2.5625 0.20312 2.1406 1.1719 2.5938 1.6562 1.0156 1.1875 1.1094 1.7188 0.125 1.9375-0.21875 2.3438-2.4375 2.1719-2.8125 2.3438-1.25 0.45312-1.625 0.5-1.5 0.10938-2.2031 0.09375-3.2344-0.5-4.1406-1.2344-1.9688-1.9531-2.0312-2.5781-0.375-1.2969 0.78125-2.7188 2.332-1.6875 3.207-1.9688 2.7773-0.35938 2.7773-0.35938" fill="#fff"/>
<path transform="matrix(.1 0 0 -.1 0 81.03)" d="m350.39 539.87s18.906 0.46875 25.625-2.0312 21.406-11.719 25.938-16.562 10.156-11.875 11.094-17.188 1.25-19.375-2.1875-23.438-24.375-21.719-28.125-23.438-12.5-4.5312-16.25-5-15-1.0938-22.031-0.9375-32.344 5-41.406 12.344-19.688 19.531-20.312 25.781-3.75 12.969 7.8125 27.188 23.32 16.875 32.07 19.688 27.773 3.5938 27.773 3.5938z" fill="none" stroke="#fff" stroke-miterlimit="10" stroke-width="2.5"/>
<path d="m48.066 33.688c0.20703 2.918 3.3125 3.375 3.7305 3.375s0.875 0.10547 0.51953-2.5c-0.0625-1.375 0.70703-3.6641 1.0234-4.1641 0.30859-0.5 0.41406-1.1055-0.46094-1.1055s-5.0195 1.4805-4.8125 4.3945" fill="#fff"/>
<path transform="matrix(.1 0 0 -.1 0 81.03)" d="m480.66 473.42c2.0703-29.18 33.125-33.75 37.305-33.75 4.1797 0 8.75-1.0547 5.1953 25-0.625 13.75 7.0703 36.641 10.234 41.641 3.0859 5 4.1406 11.055-4.6094 11.055s-50.195-14.805-48.125-43.945z" fill="none" stroke="#fff" stroke-miterlimit="10" stroke-width="2.5"/>
<path transform="matrix(.1 0 0 -.1 0 81.03)" d="m528.79 517.37s-9.7266-1.6016-10.742-1.9922c-0.97656-0.35156-39.453-12.812-37.383-41.953" fill="none" stroke="#fff" stroke-miterlimit="10" stroke-width="2.5"/>
<path d="m43.57 50.527h4.3281s1.8281 0.17188 1.7969 2.5781-0.82812 5.7812-5.7656 5-4.2031-0.96875-6.5898-2.5156c-2.3945-1.5469-2.25-2.7656 2.4648-4.6562 1.4844-0.46875 3.7656-0.40625 3.7656-0.40625" fill="#fff"/>
<path transform="matrix(.1 0 0 -.1 0 81.03)" d="m435.7 305.03h43.281s18.281-1.7188 17.969-25.781-8.2812-57.812-57.656-50-42.031 9.6875-65.898 25.156c-23.945 15.469-22.5 27.656 24.648 46.562 14.844 4.6875 37.656 4.0625 37.656 4.0625z" fill="none" stroke="#fff" stroke-miterlimit="10" stroke-width="2.5"/>
<path d="m79.961 20.527 1.1875 2.1719 0.26562 0.51562 0.09375 0.42188-0.26562 0.53125-0.50781 0.53125-0.64844 0.29688h-0.59375l-0.92188-1.3125-1.0469-1.7812s-0.0625-0.6875 0.21875-1.0781c0.28516-0.39062 0.8125-0.625 1.0156-0.71875s0.4375-0.20312 0.60156-0.28125c0.16797-0.078125 0.60156 0.70312 0.60156 0.70312" fill="#221f1f"/>
<path transform="matrix(.1 0 0 -.1 0 81.03)" d="m799.61 605.03 11.875-21.719 2.6562-5.1562 0.9375-4.2188-2.6562-5.3125-5.0781-5.3125-6.4844-2.9688h-5.9375l-9.2188 13.125-10.469 17.812s-0.625 6.875 2.1875 10.781c2.8516 3.9062 8.125 6.25 10.156 7.1875s4.375 2.0312 6.0156 2.8125c1.6797 0.78125 6.0156-7.0312 6.0156-7.0312z" fill="none" stroke="#020202" stroke-miterlimit="10" stroke-width="2.5"/>
<path d="m82.477 17.105 5.1094 5.1094s0.67188 0.54688-0.42188 1.6875c-1.0898 1.1406-0.70312 1.1562-3.6094-1.625s-3.4805-3.0312-2.0469-4.5156c0.81641-0.84375 0.96875-0.65625 0.96875-0.65625" fill="#221f1f"/>
<g clip-path="url(#c)">
<path transform="matrix(.1 0 0 -.1 0 81.03)" d="m824.77 639.25 51.094-51.094s6.7188-5.4688-4.2188-16.875c-10.898-11.406-7.0312-11.562-36.094 16.25s-34.805 30.312-20.469 45.156c8.1641 8.4375 9.6875 6.5625 9.6875 6.5625z" fill="none" stroke="#020202" stroke-miterlimit="10" stroke-width="2.5"/>
</g>
<g clip-path="url(#b)">
<path d="m83.742 12.621 6.9844 0.21875s1.0156-0.20312 0.9375 1.4219 0.51562 1.5625-6.8281 1.4531c-1.9492-0.015625-2.4688 0.015625-2.3906-2.0938 0.015625-0.60938-0.15625-1.0469 0.53125-1" fill="#221f1f"/>
</g>
<g clip-path="url(#a)">
<path transform="matrix(.1 0 0 -.1 0 81.03)" d="m837.42 684.09 69.844-2.1875s10.156 2.0312 9.375-14.219 5.1562-15.625-68.281-14.531c-19.492 0.15625-24.688-0.15625-23.906 20.938 0.15625 6.0938-1.5625 10.469 5.3125 10z" fill="none" stroke="#020202" stroke-miterlimit="10" stroke-width="2.5"/>
</g>
<path d="m84.273 4.8281-3.6836 3.582s-1.168 0.91797 0.25 2.0664c1.4141 1.1445 1.0195 1.2891 4.3125-2.1484 2.3945-2.543 1.9141-2.543 0.60156-3.6875-0.875-0.75-1.4805 0.1875-1.4805 0.1875" fill="#221f1f"/>
<path transform="matrix(.1 0 0 -.1 0 81.03)" d="m842.73 762.02-36.836-35.82s-11.68-9.1797 2.5-20.664c14.141-11.445 10.195-12.891 43.125 21.484 23.945 25.43 19.141 25.43 6.0156 36.875-8.75 7.5-14.805-1.875-14.805-1.875z" fill="none" stroke="#020202" stroke-miterlimit="10" stroke-width="2.5"/>
<path d="m76.879 7.5586 1.2305 0.5625s0.85547 1 1.543-1.707c1.1445-2.1875 0.58203-2.2734-0.375-2.793-0.96094-0.51953-1.2109 0.54297-1.8125 1.4375-0.60547 0.89453-1.5625 1.957-0.71094 2.3945 0.85547 0.4375 0.125 0.10547 0.125 0.10547" fill="#221f1f"/>
<path transform="matrix(.1 0 0 -.1 0 81.03)" d="m768.79 734.71 12.305-5.625s8.5547-10 15.43 17.07c11.445 21.875 5.8203 22.734-3.75 27.93-9.6094 5.1953-12.109-5.4297-18.125-14.375-6.0547-8.9453-15.625-19.57-7.1094-23.945 8.5547-4.375 1.25-1.0547 1.25-1.0547z" fill="none" stroke="#020202" stroke-miterlimit="10" stroke-width="2.5"/>
</svg>
