<?xml version="1.0" encoding="UTF-8"?>
<svg version="1.1" viewBox="0 0 179.19 182.22" xmlns="http://www.w3.org/2000/svg">
<path d="m110.91 134.26h-18.45v-39.777h18.45zm-24.358 0h-18.45v-39.777h18.45zm5.9082-77.292h-5.9341l0.0259 33.136h-18.45v-33.058h-5.9082v33.058h-13.369v4.3793h13.369v39.777h-13.369v4.1979h13.369v42.528h5.9082v-42.528h18.45v42.528h5.9082v-42.528h18.45v42.528h5.3381v-42.528h12.056v-4.1979h-12.056v-39.777h12.056v-4.3793h-12.056v-33.306h-5.3381v33.306h-18.45zm47.654 125.26h39.077v-78.025h-39.077zm-140.11 0h39.103v-78.025h-39.103zm140.11-90.333h39.077c0-57.89-43.145-82.248-43.145-82.248l-13.682 36.563s17.751 13.682 17.751 45.685zm-83.259-45.685-13.682-36.563s-43.145 24.358-43.145 82.248h39.077c0-32.003 17.751-45.685 17.751-45.685m-4.5607-46.203h74.63l-16.248 46.203h-41.617z"/>
</svg>
