<?xml version="1.0" encoding="UTF-8"?>
<!DOCTYPE svg  PUBLIC '-//W3C//DTD SVG 1.1//EN'  'http://www.w3.org/Graphics/SVG/1.1/DTD/svg11.dtd'>
<svg clip-rule="evenodd" fill-rule="evenodd" stroke-linejoin="round" stroke-miterlimit="2" version="1.1" viewBox="0 0 484 484" xml:space="preserve" xmlns="http://www.w3.org/2000/svg"><rect width="484" height="484" fill="none"/><path d="m425.33 228.46c-0 24.875-9.018 41.859-27.129 50.877-5.261 2.63-21.869 6.237-49.75 10.746-18.111 3.006-27.129 9.995-27.129 20.892v45.766c-0 1.879 0.601 7.741 1.728 17.51l1.729 18.111c-0 5.637-1.353 14.88-3.983 27.731-7.139 1.503-15.481 3.231-24.875 5.11-3.006-11.348-4.509-19.013-4.509-23.221 0-1.879 0.451-4.735 1.428-8.492 0.902-3.758 1.428-6.614 1.428-8.492-0-2.631-2.33-9.995-7.064-22.019h-8.793c-1.127 1.878-1.578 4.358-1.202 7.364 1.503 6.388 2.104 11.874 1.728 16.383-6.387 4.509-15.255 10.596-26.603 18.111-2.63-0.751-3.607-1.127-2.856-1.127v-40.13c-0.751-1.879-2.63-2.63-5.636-2.255h-6.763l-6.764 53.132c-5.26 0.375-11.723 0.375-19.238-0-2.631-12.4-7.365-30.887-14.129-55.386h-4.509c-4.133 13.226-6.387 20.366-6.763 21.493-0 1.503 0.451 4.434 1.428 8.792 0.902 4.359 1.428 7.29 1.428 8.793-0 1.127-0.376 3.983-1.128 8.492l-1.728 13.602c-0.752 0.752-1.728 1.127-2.856 1.127-11.272 0-18.862-2.855-22.62-8.492-3.757-5.636-5.26-13.602-4.509-23.747l4.509-67.861c0-1.127 0.376-2.63 1.127-4.509 0.752-1.878 1.128-3.231 1.128-3.983-0-3.006-3.232-9.018-9.62-18.111-1.127-0.376-6.989-1.728-17.51-3.983-6.387-1.503-19.013-4.133-37.875-7.891-26.002-4.884-39.003-25.776-39.003-62.75-0-55.01 22.62-100.85 67.86-137.37 1.879 10.145 5.111 23.747 9.62 40.731 3.381 0.752 10.746 2.48 22.019 5.11 2.254 0.752 13.752 4.885 34.493 12.475-10.596-6.388-24.348-16.758-41.257-31.112-6.388-7.515-9.619-20.14-9.619-37.876-0-4.133 7.139-9.018 21.493-14.729 12.775-5.261 22.47-8.267 28.857-9.018 20.366-2.63 35.997-3.983 46.969-3.983 47.119-0 85.221 12.099 114.23 36.222-9.393 10.972-25.626 22.621-48.622 35.02 9.094 0.376 22.245-3.156 39.604-10.746 17.36-7.515 24.725-11.273 22.019-11.273 3.006 0 9.094 6.012 18.112 18.111 6.763 9.018 12.249 17.135 16.382 24.349 12.024 21.493 20.141 44.714 24.349 69.589 0 8.718 0.15 14.88 0.601 18.637v4.509l-0.225-0.225zm-216.58 10.145c0-16.232-7.064-31.563-21.192-46.067s-29.309-21.793-45.541-21.793c-14.354-0-26.979 6.087-37.876 18.186-10.972 12.174-16.383 25.626-16.383 40.431 0 12.926 6.238 21.267 18.638 25.025 7.89 2.254 19.013 3.607 33.366 3.983h31.112c25.251 0.375 37.876-6.238 37.876-19.765m61.623 70.115v-17.51c-2.63-4.884-5.26-9.995-7.891-15.255-2.254-7.515-6.387-18.111-12.475-31.638l-6.237 66.132c0 5.26-1.127 7.89-3.382 7.89-1.503 0-2.63-0.375-3.381-1.127-2.631-39.98-3.983-57.264-3.983-52.004v-19.764c-0.752-1.127-1.654-1.729-2.781-1.729-12.851 13.227-19.238 34.494-19.238 63.878-0 16.232 1.503 26.227 4.509 29.985 3.006-0.752 6.387-2.104 10.145-3.983 1.503-0.752 5.862-1.127 13.001-1.127s15.856 2.254 26.002 6.763c3.757 0 5.636-10.145 5.636-30.511m127.83-78.757c0-15.18-5.636-28.707-16.984-40.656-11.347-11.949-24.348-17.886-39.002-17.886-15.857-0-30.662 7.214-44.414 21.794-13.753 14.504-20.666 29.684-20.666 45.541-0 13.226 6.387 19.764 19.238 19.764h65.005c24.499-0.376 36.748-9.845 36.748-28.482" fill-rule="nonzero"/></svg>
