<?xml version="1.0" encoding="UTF-8"?>
<svg version="1.1" viewBox="0 0 536.81 412.92" xmlns="http://www.w3.org/2000/svg">
<path d="m536.81 412.92c-6.892-13.773-27.545-13.773-41.273-17.219-13.773-3.4347-20.653-10.327-158.31-189.25 137.66-178.92 144.54-185.8 158.31-189.25 13.728-3.4347 34.381-3.4347 41.273-17.207h-172.04c0 6.8807 0 13.773-5.2086 25.772-5.1182 12.044-15.445 29.263-91.178 125.6-75.654-96.341-85.981-113.56-91.144-125.6-5.1634-11.999-5.1634-18.891-5.1634-25.772h-172.07c6.8807 13.773 27.534 13.773 41.307 17.207 13.728 3.446 20.653 10.327 158.27 189.25-137.61 178.92-144.54 185.81-158.27 189.25-13.773 3.446-34.426 3.446-41.307 17.219h172.07c0-6.892 0-13.773 5.1634-25.817 5.1634-12.055 15.49-29.218 91.144-125.62 75.733 96.398 86.06 113.56 91.178 125.62 5.2086 12.044 5.2086 18.925 5.2086 25.817z"/>
</svg>
