<?xml version="1.0" encoding="UTF-8"?>
<svg version="1.1" viewBox="0 0 539.38 614.03" xmlns="http://www.w3.org/2000/svg">
<path d="m414.99 136.9c-54.815 19.312-88.868 24.979-146.99 24.574-57.177-0.31978-90.589-6.1899-144.48-25.485-10.339-20.425-16.731-43.886-16.731-64.176h325.86c0 21.876-17.659 65.087-17.659 65.087m-65.154 273.76c51.712 27.205 85.31 66.942 85.31 115.3 0 7.1176-0.65711 6.8477-2.0408 16.141h-67.465c-46.382-34.593-78.462-91.516-78.462-167.8l-0.45471-8.1801s28.723 26.429 63.114 44.544m-97.436-34.07c0 76.303-32.164 133.29-78.614 165.51h-67.398c-1.4505-6.9152-2.1758-6.6622-2.1758-13.898 0-48.305 33.732-88.092 85.326-115.18 34.593-18.114 63.181-46.973 63.181-46.973l-0.32114 10.541zm286.98-311.76v-57.514c0-4.031-3.154-7.32-7.185-7.32h-525.03c-3.9467 0-7.1682 3.2889-7.1682 7.32v57.514c0 3.8118 3.2215 7.0501 7.1682 7.0501h42.638l-0.06746 5.5321c0 65.88 46.045 114.57 103.04 144.61 33.075 17.271 40.597 38.286 40.597 77.618 0 38.809-8.2476 60.938-41.643 78.462-57.126 29.971-103.12 78.732-103.12 144.54 0 6.7296 0.47226 13.054 1.3318 19.447h-42.773c-3.9467 0-7.1682 3.2889-7.1682 7.2356v57.598c0 3.8792 3.2215 7.1007 7.1682 7.1007h525.03c4.031 0 7.185-3.2215 7.185-7.1007v-57.598c0-3.9467-3.154-7.2356-7.185-7.2356h-43.802c0.72458-6.3923 1.3156-12.717 1.3156-19.447 0-65.812-46.129-114.57-103.17-144.54-33.345-17.524-41.575-39.653-41.575-78.462 0-37.882 8.7536-59.757 42.756-77.618 57.059-29.971 103.1-78.732 103.1-144.61l-0.0675-5.5321h41.508c3.9636 0 7.1176-3.2383 7.1176-7.0501"/>
</svg>
