<?xml version="1.0" encoding="UTF-8"?>
<svg width="50.189mm" height="34.761mm" version="1.1" viewBox="0 0 50.189 34.761" xmlns="http://www.w3.org/2000/svg">
<path d="m7.1402 0c1.3159 0.6597 2.5894 1.7533 4.1663 1.517 3.3726-0.38806 6.8298-1.9685 10.213-0.71261 1.8274 0.57855 2.9916 2.1837 3.9017 3.7747 1.972-2.1096 4.96-2.7658 7.747-2.6388 3.2738-0.0353 6.5581 1.2665 9.7966 0.30692 0.14112 0.5715 0.0917 1.2312 0.41275 1.7392 0.75848 0.45861 1.6228 0.71614 2.3707 1.203 0.25047 0.47978 0.33161 1.0266 0.43039 1.5558 1.2806 8.128 2.5929 16.249 3.9264 24.366 0.13758 0.62089 0.22225 1.7321-0.71614 1.644-4.9142-0.38806-9.8531-1.0689-14.792-0.59972-2.0884 0.23636-4.2086 0.68086-6.0396 1.7533-1.5628 0.93486-3.489 0.99484-5.2388 0.68086-1.4958-0.37747-2.7376-1.4005-4.2404-1.778-4.9565-1.3723-10.139-0.6738-15.187-0.32808-1.2947 0.11994-2.5964 0.39511-3.8911 0.15169 0.87489-7.3519 2.1378-14.658 3.1715-21.992 0.33867-1.8133 0.48684-3.6654 0.92781-5.454 0.78316-0.5468 1.6898-0.86783 2.5506-1.2629 0.15875-1.3088 0.3175-2.6211 0.49036-3.9264m8.0363 1.9861c-2.3001 0.50447-4.8966 1.4958-7.1085 0.17286-0.95603 8.3079-1.838 16.63-2.8716 24.931 6.4276-1.4288 13.804-1.1465 19.212 3.0198 0.0317-7.7823-0.0141-15.565 0.0176-23.347 0.13053-1.7604-0.93133-3.429-2.3601-4.378-2.0567-1.2876-4.6426-0.87842-6.8898-0.39864m10.7 3.8312c-0.0811 8.0716 0.0811 16.157 0.0741 24.236 5.4116-4.0252 12.696-4.3886 19.078-2.9563-0.99836-7.7858-2.0496-15.565-2.9774-23.357-3.8029 0.35983-7.5494-1.0513-11.349-0.50095-1.8415 0.23989-3.7006 1.0513-4.826 2.5788m-20.694 0.76553c-1.0407 7.9551-2.0673 15.914-3.1503 23.862 5.2705-1.5346 10.89-2.3883 16.337-1.3511 2.0708 0.49388 4.2686 1.0971 5.8596 2.5859-0.36336-0.87136-1.4534-1.1959-2.1978-1.6933-5.7291-2.7446-12.4-2.3636-18.478-1.1924 0.95956-7.5918 1.9614-15.18 2.9034-22.775-0.42686 0.18697-0.85019 0.37395-1.2735 0.56445m38.372-0.55386c0.99484 7.6059 2.1202 15.198 3.1926 22.796-4.0816-1.0054-8.3573-1.3723-12.531-0.76552-2.9069 0.44097-5.8491 1.4146-8.0892 3.3796 1.8486-1.1712 3.8664-2.099 6.0254-2.5153 5.3904-1.0619 11.003-0.15875 16.125 1.6792-1.1571-7.9763-2.2437-15.963-3.4502-23.936-0.42686-0.21519-0.85019-0.43039-1.2735-0.63852z"/>
</svg>
